<svg width="81" height="27" viewBox="0 0 81 27" fill="none" xmlns="http://www.w3.org/2000/svg">
<path d="M10.4285 11.919H9.07059C7.29297 9.43549 5.52954 6.96602 3.76788 4.17485H3.75311V11.919H2.2557V1.1193H3.61241C5.39062 3.5876 7.15228 6.04011 8.89856 8.81666H8.93049V1.1193H10.4285V11.919ZM13.9831 7.64509C14.4188 6.22611 14.8563 4.91358 15.2453 3.24777H15.2766C15.7129 4.91475 16.1042 6.22611 16.5092 7.64626H13.9831V7.64509ZM14.7014 1.11989L10.9262 11.9196H12.549L13.4948 8.97166H16.7817L17.6389 11.9196H19.7257L16.2561 1.1193H14.7014V1.11989ZM21.4997 11.919V2.56928H18.6297V1.11872H26.2397V2.56928H23.3708V11.919H21.4997ZM26.8474 11.919V1.1193H28.7036V11.919H26.8474ZM34.4733 10.562C32.5225 10.562 31.8368 8.43121 31.8368 6.36532C31.8368 4.3743 32.6171 2.4757 34.4733 2.4757C36.3278 2.4757 37.1081 4.3743 37.1081 6.36532C37.1081 8.43121 36.4224 10.562 34.4733 10.562ZM34.4733 12.1038C37.3263 12.1038 39.1039 9.59049 39.1039 6.3659C39.1039 3.3396 37.1353 0.9333 34.4692 0.9333C31.8031 0.9333 29.8345 3.34019 29.8345 6.36532C29.8345 9.59049 31.608 12.1032 34.4633 12.1032L34.4733 12.1038ZM48.4141 11.919H47.0574C45.2792 9.43549 43.5181 6.96602 41.7558 4.17485H41.7381V11.919H40.2425V1.1193H41.6004C43.378 3.5876 45.1414 6.04011 46.8853 8.81666H46.9179V1.1193H48.4135V11.919H48.4141ZM51.9699 7.64509C52.4062 6.22611 52.8431 4.91358 53.2326 3.24777H53.2622C53.6996 4.91475 54.0839 6.22611 54.4918 7.64626H51.9616L51.9699 7.64509ZM52.6864 1.1193L48.9124 11.919H50.5381L51.4899 8.97107H54.7767L55.6398 11.919H57.7325L54.2506 1.1193H52.6959H52.6864ZM58.2699 1.1193H60.125V10.4684H63.8197V11.919H58.2687V1.11872L58.2699 1.1193ZM9.27572 20.9546V25.4128C8.27785 25.8006 7.23267 26.0766 6.17213 26.0766C2.96036 26.0766 0.932678 23.6083 0.932678 20.43C0.932678 17.4838 2.96036 14.9055 6.23539 14.9055C7.24627 14.9055 8.25715 15.2775 8.88378 15.7408L8.27489 17.0217C7.7724 16.7117 6.99207 16.4544 6.27677 16.4544C4.27865 16.4544 2.91898 18.0161 2.91898 20.4668C2.91898 23.0287 4.47964 24.5436 6.08169 24.5436C6.58003 24.5436 7.00094 24.4851 7.39051 24.2862V20.964H9.25976L9.27572 20.9546ZM15.9647 16.5427H12.8451V19.5041H15.9014V20.9546H12.8451V24.4407H16.5269V25.8924H10.9741V15.0921H15.9635V16.5427H15.9647ZM21.7344 24.5342C19.7854 24.5342 19.0996 22.4052 19.0996 20.3375C19.0996 18.3477 19.8788 16.4491 21.7344 16.4491C23.5907 16.4491 24.371 18.3477 24.371 20.3375C24.371 22.4064 23.6853 24.5342 21.7344 24.5342ZM21.7344 26.0766C24.5897 26.0766 26.3668 23.5615 26.3668 20.3375C26.3668 17.3136 24.4011 14.9049 21.7344 14.9049C19.0683 14.9049 17.1039 17.313 17.1039 20.3375C17.1039 23.5615 18.8809 26.0766 21.7344 26.0766ZM35.3488 20.9546V25.4128C34.3498 25.8006 33.3052 26.0766 32.2453 26.0766C29.0329 26.0766 27.0064 23.6083 27.0064 20.43C27.0064 17.4838 29.0341 14.9055 32.3079 14.9055C33.3235 14.9055 34.3356 15.2775 34.9593 15.7408L34.3504 17.0217C33.852 16.7117 33.0723 16.4544 32.3552 16.4544C30.3589 16.4544 29.0016 18.0161 29.0016 20.4668C29.0016 23.0287 30.561 24.5436 32.1666 24.5436C32.6656 24.5436 33.0888 24.4851 33.4778 24.2862V20.964H35.3494L35.3488 20.9546ZM38.9342 16.5427H39.7619C40.8697 16.5427 41.491 17.1761 41.491 18.2857C41.491 19.7345 40.6043 20.3838 39.714 20.4294C39.5307 20.4446 39.0933 20.461 38.9396 20.4773V16.5415L38.9342 16.5427ZM43.6753 25.893L41.4774 21.4185C42.6775 20.7856 43.365 19.5046 43.365 18.2102C43.365 16.1104 42.0703 15.0927 39.9788 15.0927H37.0585V25.8941H38.9265V21.8197H39.766L41.5276 25.893H43.6617V25.8918L43.6753 25.893ZM46.7636 21.6173C47.1981 20.1995 47.6355 18.8887 48.0257 17.2223H48.0612C48.4986 18.8893 48.8888 20.1995 49.2967 21.6173H46.7724H46.7636ZM47.4789 15.0921L43.7073 25.8936H45.3282L46.28 22.9456H49.5704L50.4276 25.8936H52.5179L49.0395 15.0904H47.4789V15.0921ZM56.027 15.0921H53.1097V25.8941H54.9836V21.8203H55.829C58.0636 21.8203 59.4173 20.0293 59.4173 18.2102C59.4173 16.1104 58.1227 15.0927 56.0359 15.0927L56.027 15.0921ZM55.7628 20.43C55.5677 20.4452 55.1125 20.4592 54.9766 20.475V16.5427H55.816C56.9096 16.5427 57.5304 17.1761 57.5304 18.2857C57.5304 19.7345 56.6377 20.3843 55.751 20.43H55.7628ZM68.0767 25.893H66.2027V20.6914H62.3188V25.893H60.4625V15.0921H62.3129V19.2438H66.1968V15.1225H68.0666V25.893H68.0767ZM69.8679 15.0921H71.7182V25.8941H69.862L69.8679 15.0921ZM80.1422 17.0515C79.687 16.7725 78.9422 16.4491 78.221 16.4491C76.3174 16.4491 74.9294 18.0079 74.9294 20.4615C74.9294 23.0217 76.4564 24.5342 78.2653 24.5342C78.9824 24.5342 79.6545 24.3026 80.1363 23.9938L80.6524 25.3391C80.0908 25.7251 79.0918 26.0819 78.1873 26.0819C74.9725 26.0819 72.9461 23.6136 72.9461 20.4376C72.9461 17.4955 74.9578 14.9161 78.2192 14.9161C79.1828 14.9161 80.0873 15.3196 80.7257 15.7525L80.1328 17.0668L80.1422 17.0515Z" fill="white"/>
</svg>
